<?xml version="1.0" standalone="no"?>
 <!DOCTYPE svg PUBLIC "-//W3C//DTD SVG 1.1//EN" 
 "http://www.w3.org/Graphics/SVG/1.1/DTD/svg11.dtd"> 
<svg
  xmlns:svg="http://www.w3.org/2000/svg"
  xmlns="http://www.w3.org/2000/svg"
  xmlns:xlink="http://www.w3.org/1999/xlink"
  version="1.1"
  width="235.1278mm" height="64.8462mm" viewBox="0.0000 0.0000 235.1278 64.8462">
<title>SVG Image created as haptic-hands-Edge_Cuts.svg date 2025/04/23 13:37:21 </title>
  <desc>Image generated by PCBNEW </desc>
<g style="fill:#000000; fill-opacity:1.0000;stroke:#000000; stroke-opacity:1.0000;
stroke-linecap:round; stroke-linejoin:round;"
 transform="translate(0 0) scale(1 1)">
</g>
<g style="fill:none; 
stroke:#D0D2CD; stroke-width:0.0500; stroke-opacity:1; 
stroke-linecap:round; stroke-linejoin:round;">
<path d="M109.2700 6.4000
L109.2700 5.1300
" />
</g>
<g style="fill:none; 
stroke:#D0D2CD; stroke-width:0.1000; stroke-opacity:1; 
stroke-linecap:round; stroke-linejoin:round;">
<path d="M109.2700 5.1300 A5.0800 5.0800 0.0 0 0 104.1900 0.0500" />
<path d="M0.0500 16.5600
L0.0500 59.7400
" />
</g>
<g style="fill:none; 
stroke:#D0D2CD; stroke-width:0.0500; stroke-opacity:1; 
stroke-linecap:round; stroke-linejoin:round;">
<path d="M69.9000 64.8200
L134.6700 64.8200
" />
</g>
<g style="fill:none; 
stroke:#D0D2CD; stroke-width:0.1000; stroke-opacity:1; 
stroke-linecap:round; stroke-linejoin:round;">
<path d="M104.1900 0.0500
L69.9000 0.0500
" />
<path d="M134.6700 64.8200 A5.0800 5.0800 0.0 0 0 139.7500 59.7400" />
<path d="M25.3230 11.4800 A5.0800 5.0800 0.0 0 0 30.4030 6.4000" />
<path d="M139.7500 16.5600 A5.0800 5.0800 0.0 0 0 134.6700 11.4800" />
<path d="M69.9000 64.8200
L5.1300 64.8200
" />
<path d="M35.4830 0.0500
L69.9000 0.0500
" />
<path d="M5.1300 11.4800
L25.3230 11.4800
" />
<path d="M109.2700 6.4000 A5.0800 5.0800 0.0 0 0 114.3500 11.4800" />
<path d="M0.0500 59.7400 A5.0800 5.0800 0.0 0 0 5.1300 64.8200" />
<path d="M114.3500 11.4800
L134.6700 11.4800
" />
</g>
<g style="fill:none; 
stroke:#D0D2CD; stroke-width:0.0500; stroke-opacity:1; 
stroke-linecap:round; stroke-linejoin:round;">
<path d="M30.4030 6.4000
L30.4030 5.1300
" />
</g>
<g style="fill:none; 
stroke:#D0D2CD; stroke-width:0.1000; stroke-opacity:1; 
stroke-linecap:round; stroke-linejoin:round;">
<path d="M35.4830 0.0500 A5.0800 5.0800 0.0 0 0 30.4030 5.1300" />
<path d="M139.7500 59.7400
L139.7500 16.5600
" />
<path d="M5.1300 11.4800 A5.0800 5.0800 0.0 0 0 0.0500 16.5600" />
</g>
<g style="fill:none; 
stroke:#D0D2CD; stroke-width:0.0500; stroke-opacity:1; 
stroke-linecap:round; stroke-linejoin:round;">
<path d="M109.2700 6.4000
L109.2700 5.1300
" />
</g>
<g style="fill:none; 
stroke:#D0D2CD; stroke-width:0.1000; stroke-opacity:1; 
stroke-linecap:round; stroke-linejoin:round;">
<path d="M109.2700 5.1300 A5.0800 5.0800 0.0 0 0 104.1900 0.0500" />
<path d="M0.0500 16.5600
L0.0500 59.7400
" />
</g>
<g style="fill:none; 
stroke:#D0D2CD; stroke-width:0.0500; stroke-opacity:1; 
stroke-linecap:round; stroke-linejoin:round;">
<path d="M69.9000 64.8200
L134.6700 64.8200
" />
</g>
<g style="fill:none; 
stroke:#D0D2CD; stroke-width:0.1000; stroke-opacity:1; 
stroke-linecap:round; stroke-linejoin:round;">
<path d="M104.1900 0.0500
L69.9000 0.0500
" />
<path d="M134.6700 64.8200 A5.0800 5.0800 0.0 0 0 139.7500 59.7400" />
<path d="M25.3230 11.4800 A5.0800 5.0800 0.0 0 0 30.4030 6.4000" />
<path d="M139.7500 16.5600 A5.0800 5.0800 0.0 0 0 134.6700 11.4800" />
<path d="M69.9000 64.8200
L5.1300 64.8200
" />
<path d="M35.4830 0.0500
L69.9000 0.0500
" />
<path d="M5.1300 11.4800
L25.3230 11.4800
" />
<path d="M109.2700 6.4000 A5.0800 5.0800 0.0 0 0 114.3500 11.4800" />
<path d="M0.0500 59.7400 A5.0800 5.0800 0.0 0 0 5.1300 64.8200" />
<path d="M114.3500 11.4800
L134.6700 11.4800
" />
</g>
<g style="fill:none; 
stroke:#D0D2CD; stroke-width:0.0500; stroke-opacity:1; 
stroke-linecap:round; stroke-linejoin:round;">
<path d="M30.4030 6.4000
L30.4030 5.1300
" />
</g>
<g style="fill:none; 
stroke:#D0D2CD; stroke-width:0.1000; stroke-opacity:1; 
stroke-linecap:round; stroke-linejoin:round;">
<path d="M35.4830 0.0500 A5.0800 5.0800 0.0 0 0 30.4030 5.1300" />
<path d="M139.7500 59.7400
L139.7500 16.5600
" />
<path d="M5.1300 11.4800 A5.0800 5.0800 0.0 0 0 0.0500 16.5600" />
</g> 
</svg>
