M48
; DRILL file {KiCad 8.0.7} date 2025-04-27T12:49:48+0100
; FORMAT={-:-/ absolute / metric / decimal}
; #@! TF.CreationDate,2025-04-27T12:49:48+01:00
; #@! TF.GenerationSoftware,Kicad,Pcbnew,8.0.7
; #@! TF.FileFunction,Plated,1,2,PTH
FMAT,2
METRIC
; #@! TA.AperFunction,Plated,PTH,ViaDrill
T1C0.300
; #@! TA.AperFunction,Plated,PTH,ComponentDrill
T2C0.800
; #@! TA.AperFunction,Plated,PTH,ComponentDrill
T3C0.900
; #@! TA.AperFunction,Plated,PTH,ComponentDrill
T4C1.000
; #@! TA.AperFunction,Plated,PTH,ComponentDrill
T5C1.100
%
G90
G05
T1
X65.112Y-129.966
X65.431Y-136.832
X83.54Y-134.679
X88.806Y-147.31
X93.186Y-140.769
X101.187Y-146.611
T2
X63.563Y-148.59
X63.563Y-151.892
X71.183Y-148.59
X71.183Y-151.892
X73.469Y-148.59
X73.469Y-151.892
X74.623Y-142.748
X79.623Y-142.748
X81.09Y-148.59
X81.09Y-151.892
X83.376Y-148.59
X83.376Y-151.892
X90.995Y-148.59
X90.995Y-151.892
X105.093Y-131.064
X105.093Y-136.144
X107.632Y-133.604
T3
X47.185Y-126.238
X49.725Y-126.238
X53.657Y-126.238
X56.197Y-126.238
X60.134Y-126.238
X62.674Y-126.238
X90.858Y-126.238
X93.398Y-126.238
X97.34Y-126.238
X99.88Y-126.238
X103.817Y-126.238
X106.358Y-126.238
T4
X104.965Y-149.098
X104.965Y-151.638
T5
X46.509Y-138.713
X46.509Y-145.213
X51.009Y-138.713
X51.009Y-145.213
X54.002Y-132.236
X54.002Y-138.736
X54.002Y-145.19
X54.002Y-151.69
X58.502Y-132.236
X58.502Y-138.736
X58.502Y-145.19
X58.502Y-151.69
X61.531Y-138.661
X61.531Y-145.161
X66.031Y-138.661
X66.031Y-145.161
X87.598Y-138.737
X87.598Y-145.237
X92.098Y-138.737
X92.098Y-145.237
X95.132Y-132.236
X95.132Y-138.736
X95.132Y-145.265
X95.132Y-151.765
X99.631Y-132.236
X99.631Y-138.736
X99.631Y-145.265
X99.631Y-151.765
X102.715Y-138.765
X102.715Y-145.265
X107.215Y-138.765
X107.215Y-145.265
M30
